Coordinates
version=1
nRows=20
nColumns=63
inDegrees=yes

Units are S.I. units (second, meters, Newtons, ...)
If the header above contains a line with 'inDegrees', this indicates whether rotational values are in degrees (yes) or radians (no).

endheader
time	pelvis_tilt	pelvis_list	pelvis_rotation	pelvis_tx	pelvis_ty	pelvis_tz	hip_flexion_r	hip_adduction_r	hip_rotation_r	knee_angle_r	knee_angle_r_beta	ankle_angle_r	subtalar_angle_r	mtp_angle_r	hip_flexion_l	hip_adduction_l	hip_rotation_l	knee_angle_l	knee_angle_l_beta	ankle_angle_l	subtalar_angle_l	mtp_angle_l	L5_S1_Flex_Ext	L5_S1_Lat_Bending	L5_S1_axial_rotation	L4_L5_Flex_Ext	L4_L5_Lat_Bending	L4_L5_axial_rotation	L3_L4_Flex_Ext	L3_L4_Lat_Bending	L3_L4_axial_rotation	L2_L3_Flex_Ext	L2_L3_Lat_Bending	L2_L3_axial_rotation	L1_L2_Flex_Ext	L1_L2_Lat_Bending	L1_L2_axial_rotation	L1_T12_Flex_Ext	L1_T12_Lat_Bending	L1_T12_axial_rotation	Abs_r3	Abs_r2	Abs_r1	Abs_t1	Abs_t2	neck_flexion	neck_bending	neck_rotation	arm_flex_r	arm_add_r	arm_rot_r	elbow_flex_r	pro_sup_r	wrist_flex_r	wrist_dev_r	arm_flex_l	arm_add_l	arm_rot_l	elbow_flex_l	pro_sup_l	wrist_flex_l	wrist_dev_l
4.932203	-0.641450	-3.245069	77.989621	0.202429	0.960271	0.500160	7.200350	0.655865	-10.913821	9.737819	0.169957	26.788372	11.720213	0.000000	2.800511	-2.225326	0.815181	1.195863	0.020872	25.248831	-3.508066	0.000000	0.071418	-0.021999	2.386635	0.132631	-0.029258	2.535800	0.117333	-0.053488	2.535800	0.081624	-0.053488	2.088306	0.066319	-0.044860	1.939141	0.040808	-0.034076	1.789976	0.510135	-0.248856	13.273748	0.000000	0.000000	26.033717	-3.252184	-8.243673	-5.460280	-11.804446	9.550187	43.700831	85.428821	-6.424487	3.592005	17.459163	-5.990294	171.371871	1.189162	22.114050	-10.718106	-0.003288
4.949153	-0.507326	-3.360119	78.505792	0.200926	0.959539	0.500736	7.437946	0.734433	-11.032050	9.890214	0.172617	26.864956	11.164231	0.000000	3.096576	-2.288810	1.226807	1.363424	0.023796	25.272917	-3.617531	0.000000	0.075187	0.007726	2.298557	0.139631	0.010276	2.442217	0.123525	0.018786	2.442217	0.085932	0.018786	2.011238	0.069819	0.015755	1.867578	0.042962	0.011968	1.723918	0.537056	0.087401	12.783885	0.000000	0.000000	26.011540	-2.842225	-6.596759	-4.669561	-12.263048	10.366973	42.089063	85.650259	-6.541904	4.028979	17.729681	-5.916688	169.632959	1.213896	21.662808	-9.894811	-0.065970
4.966102	-0.352628	-3.470461	79.054026	0.199396	0.958885	0.501308	7.643893	0.851356	-10.923621	9.970702	0.174022	26.857562	10.298943	0.000000	3.416423	-2.373724	1.477645	1.595817	0.027852	25.350402	-3.488075	0.000000	0.079049	0.038803	2.200755	0.146802	0.051608	2.338302	0.129870	0.094345	2.338302	0.090345	0.094345	1.925660	0.073405	0.079126	1.788113	0.045169	0.060105	1.650566	0.564640	0.438944	12.239936	0.000000	0.000000	25.999701	-2.352421	-4.965542	-3.793460	-12.815867	11.646091	40.480883	85.962998	-6.639927	4.476298	17.953897	-5.847385	168.087880	1.224630	21.037560	-9.150320	-0.148859
4.983051	-0.193003	-3.571933	79.604517	0.197912	0.958329	0.501828	7.814958	0.989620	-10.633108	9.987143	0.174309	26.779308	9.220600	0.000000	3.746443	-2.466934	1.559782	1.880425	0.032820	25.466140	-3.152186	0.000000	0.083042	0.068483	2.100835	0.154216	0.091082	2.232138	0.136429	0.166509	2.232138	0.094908	0.166509	1.838231	0.077112	0.139650	1.706929	0.047450	0.106080	1.575627	0.593157	0.774689	11.684217	0.000000	0.000000	25.994360	-1.821542	-3.426826	-2.909485	-13.425420	13.225469	38.977969	86.367797	-6.707216	4.976159	18.118313	-5.786876	166.816141	1.221527	20.360568	-8.616360	-0.210413
5.000000	-0.032143	-3.653972	80.139233	0.196492	0.957900	0.502245	7.944659	1.141442	-10.190780	9.963175	0.173890	26.628296	7.966587	0.000000	4.064075	-2.563851	1.483847	2.200479	0.038406	25.619186	-2.634624	0.000000	0.086150	0.096436	2.002024	0.159989	0.128260	2.127151	0.141536	0.234475	2.127151	0.098461	0.234475	1.751771	0.079999	0.196653	1.626645	0.049226	0.149380	1.501518	0.615360	1.090908	11.134659	0.000000	0.000000	25.977437	-1.293615	-2.005074	-2.067800	-14.092198	15.064173	37.654079	86.844800	-6.796315	5.479062	18.220845	-5.728138	165.912228	1.200648	19.775229	-8.268642	-0.180596
5.016949	0.132292	-3.720710	80.644213	0.195180	0.957607	0.502560	8.027928	1.315825	-9.589016	9.888873	0.172593	26.374106	6.510156	0.000000	4.369247	-2.671688	1.221280	2.554027	0.044576	25.799431	-1.912252	0.000000	0.088747	0.122740	1.906072	0.164811	0.163244	2.025202	0.145802	0.298429	2.025202	0.101429	0.298429	1.667813	0.082410	0.250290	1.548684	0.050710	0.190124	1.429554	0.633909	1.388454	10.601003	0.000000	0.000000	25.941925	-0.780998	-0.707276	-1.314382	-14.798501	17.070725	36.552321	87.377320	-7.025703	5.891582	18.259702	-5.680908	165.436421	1.160577	19.271110	-8.169174	-0.125041
5.033898	0.288929	-3.768020	81.098933	0.194003	0.957454	0.502793	8.073035	1.496529	-8.873344	9.791770	0.170899	26.035962	4.917471	0.000000	4.652333	-2.779399	0.778411	2.931347	0.051162	25.981929	-1.000783	0.000000	0.089952	0.146326	1.820050	0.167051	0.194613	1.933803	0.147783	0.355777	1.933803	0.102807	0.355777	1.592544	0.083530	0.298388	1.478791	0.051399	0.226659	1.365038	0.642521	1.655267	10.122574	0.000000	0.000000	25.874314	-0.328994	0.431320	-0.697117	-15.506857	19.050005	35.712018	87.932251	-7.355938	6.196848	18.247425	-5.647696	165.441415	1.107643	18.848956	-8.416353	-0.128221
5.050847	0.421950	-3.802647	81.501995	0.192900	0.957411	0.502953	8.115758	1.633738	-8.384320	9.737919	0.169959	25.705038	3.639419	0.000000	4.917847	-2.863024	0.435460	3.317285	0.057898	26.081420	-0.289962	0.000000	0.090545	0.166892	1.745446	0.168150	0.221967	1.854536	0.148756	0.405782	1.854536	0.103483	0.405782	1.527265	0.084080	0.340327	1.418175	0.051737	0.258516	1.309085	0.646751	1.887920	9.707647	0.000000	0.000000	25.782919	0.056234	1.454989	-0.261006	-16.177534	20.801796	35.152735	88.412639	-7.709033	6.328079	18.185928	-5.628108	165.599093	1.046061	18.508127	-8.972919	-0.354942
5.067797	0.538436	-3.823558	81.827506	0.191924	0.957475	0.503059	8.149526	1.750026	-7.958686	9.716178	0.169579	25.355115	2.471568	0.000000	5.153901	-2.936015	0.064210	3.702274	0.064617	26.144059	0.399878	0.000000	0.089633	0.185384	1.688568	0.166458	0.246561	1.794103	0.147259	0.450743	1.794103	0.102442	0.450743	1.477497	0.083234	0.378036	1.371961	0.051217	0.287160	1.266426	0.640243	2.097104	9.391306	0.000000	0.000000	25.678473	0.363227	2.347862	-0.009166	-16.783663	22.188616	34.868519	88.777981	-7.999319	6.347879	18.089798	-5.625104	165.897010	0.982924	17.881403	-9.810318	-0.936765
5.084746	0.639706	-3.829401	82.068106	0.191068	0.957636	0.503100	8.171029	1.842036	-7.626501	9.727923	0.169784	25.007526	1.482591	0.000000	5.347987	-2.999087	-0.292243	4.065085	0.070949	26.174166	1.018752	0.000000	0.086787	0.202490	1.650446	0.161172	0.269311	1.753599	0.142582	0.492333	1.753599	0.099189	0.492333	1.444141	0.080590	0.412917	1.340988	0.049590	0.313657	1.237835	0.619910	2.290604	9.179288	0.000000	0.000000	25.566553	0.582093	3.116225	0.060747	-17.301679	23.111205	34.841610	88.994976	-8.202912	6.295845	17.965758	-5.635173	166.038761	0.918198	16.904304	-10.735009	-1.938506
5.101695	0.719176	-3.812077	82.217536	0.190346	0.957892	0.503050	8.174970	1.899809	-7.406200	9.781095	0.170712	24.700339	0.708925	0.000000	5.479995	-3.044108	-0.620282	4.381273	0.076468	26.175262	1.533942	0.000000	0.080994	0.217423	1.633966	0.150414	0.289173	1.736089	0.133065	0.528643	1.736089	0.092568	0.528643	1.429720	0.075211	0.443369	1.327597	0.046280	0.336788	1.225474	0.578531	2.459534	9.087628	0.000000	0.000000	25.445419	0.700868	3.754990	-0.053336	-17.702942	23.443909	35.066342	89.062863	-8.273633	6.221220	17.827859	-5.659833	165.650989	0.855341	15.631294	-11.361515	-3.303688
5.118644	0.788942	-3.775544	82.257631	0.189787	0.958241	0.502870	8.155403	1.940223	-7.281466	9.860526	0.172099	24.432423	0.172758	0.000000	5.536017	-3.085330	-0.942615	4.627655	0.080768	26.157408	1.927603	0.000000	0.073487	0.231855	1.643826	0.136473	0.308368	1.746565	0.120732	0.563733	1.746565	0.083988	0.563733	1.438348	0.068240	0.472799	1.335609	0.041991	0.359144	1.232870	0.524911	2.622794	9.142468	0.000000	0.000000	25.318989	0.727222	4.273787	-0.366708	-17.968342	23.077444	35.585027	89.058368	-8.271635	6.171445	17.672904	-5.682762	164.648608	0.796927	14.088468	-11.853297	-4.964898
5.135593	0.844686	-3.711603	82.194595	0.189391	0.958693	0.502557	8.104794	1.954170	-7.268298	9.967974	0.173974	24.229682	-0.081013	0.000000	5.505142	-3.115985	-1.267366	4.797456	0.083731	26.119162	2.187246	0.000000	0.063798	0.245035	1.678941	0.118478	0.325897	1.783875	0.104813	0.595778	1.783875	0.072914	0.595778	1.469073	0.059242	0.499676	1.364139	0.036454	0.379559	1.259206	0.455699	2.771886	9.337765	0.000000	0.000000	25.156074	0.657046	4.664424	-0.855102	-18.091052	21.953723	36.420237	89.030935	-8.178185	6.156787	17.517748	-5.721954	162.762141	0.753619	12.402117	-11.907442	-6.855108
5.152542	0.881481	-3.622200	82.038502	0.189142	0.959250	0.502110	8.021172	1.937160	-7.366554	10.092010	0.176139	24.098094	-0.047472	0.000000	5.390589	-3.129655	-1.604906	4.889221	0.085333	26.068978	2.317533	0.000000	0.053296	0.256690	1.739095	0.098976	0.341398	1.847789	0.087560	0.624116	1.847789	0.060912	0.624116	1.521708	0.049491	0.523442	1.413015	0.030453	0.397613	1.304322	0.380687	2.903727	9.672327	0.000000	0.000000	24.934919	0.505276	4.946313	-1.507544	-18.076601	20.062178	37.624835	89.044976	-8.066137	6.196220	17.375129	-5.776931	160.027572	0.722091	10.675144	-11.593227	-8.889478
5.169492	0.891476	-3.504128	81.789691	0.189015	0.959922	0.501577	7.907992	1.878213	-7.566655	10.233223	0.178603	24.043845	0.291156	0.000000	5.196038	-3.113744	-1.964063	4.906161	0.085629	25.995934	2.306006	0.000000	0.041694	0.266075	1.827915	0.077430	0.353880	1.942160	0.068499	0.646936	1.942160	0.047652	0.646936	1.599426	0.038717	0.542581	1.485181	0.023824	0.412151	1.370936	0.297815	3.009898	10.166315	0.000000	0.000000	24.625712	0.260813	5.095266	-2.302835	-17.932838	17.416475	39.229081	89.092612	-7.928156	6.309094	17.269997	-5.840299	156.581966	0.698965	9.024592	-11.038397	-11.001422
5.186441	0.875758	-3.360646	81.467758	0.188992	0.960726	0.501009	7.768947	1.782863	-7.839485	10.378672	0.181142	24.059114	0.884389	0.000000	4.940866	-3.070944	-2.352918	4.868191	0.084966	25.896513	2.191947	0.000000	0.029652	0.273274	1.943409	0.055067	0.363455	2.064872	0.048716	0.664439	2.064872	0.033890	0.664439	1.700482	0.027535	0.557261	1.579019	0.016943	0.423302	1.457556	0.211803	3.091335	10.808655	0.000000	0.000000	24.210033	-0.053784	5.131304	-3.200215	-17.678754	14.147534	41.212444	89.121261	-7.784543	6.491717	17.221376	-5.904202	152.647268	0.682160	7.539664	-10.435284	-13.131279
5.203390	0.830396	-3.190818	81.061571	0.189069	0.961659	0.500466	7.613057	1.649265	-8.149710	10.525283	0.183701	24.138994	1.703896	0.000000	4.629137	-2.992916	-2.789593	4.774048	0.083323	25.783278	1.978450	0.000000	0.016532	0.277631	2.091443	0.030701	0.369249	2.222158	0.027160	0.675032	2.222158	0.018894	0.675032	1.830013	0.015351	0.566145	1.699297	0.009446	0.430051	1.568582	0.118083	3.140619	11.631979	0.000000	0.000000	23.680748	-0.434884	5.021163	-4.174459	-17.322733	10.372815	43.538532	89.069674	-7.589278	6.731986	17.261026	-5.967279	148.201492	0.676486	6.402977	-9.598642	-15.225829
5.220339	0.750914	-3.008892	80.615178	0.189221	0.962707	0.500014	7.449485	1.492482	-8.318327	10.642256	0.185742	24.228672	2.472619	0.000000	4.298598	-2.875509	-3.107642	4.645477	0.081079	25.617729	1.531224	0.000000	0.003845	0.277930	2.261573	0.007141	0.369646	2.402921	0.006317	0.675758	2.402921	0.004395	0.675758	1.978876	0.003571	0.566754	1.837528	0.002197	0.430513	1.696180	0.027466	3.143995	12.578190	0.000000	0.000000	23.045954	-0.802555	4.817085	-5.166945	-16.876242	6.360627	46.119313	88.843385	-7.349815	6.998766	17.412235	-6.045086	143.550816	0.675762	5.270828	-8.311764	-17.247263
5.237288	0.638167	-2.826301	80.154799	0.189443	0.963834	0.499694	7.293099	1.316326	-8.348071	10.726542	0.187213	24.315951	3.157432	0.000000	3.973612	-2.721632	-3.276422	4.490436	0.078373	25.408328	0.863927	0.000000	-0.007910	0.272908	2.447296	-0.014690	0.362967	2.600252	-0.012996	0.663548	2.600252	-0.009041	0.663548	2.141384	-0.007345	0.556514	1.988428	-0.004520	0.422734	1.835472	-0.056502	3.087189	13.611126	0.000000	0.000000	22.335353	-1.132797	4.475350	-6.136227	-16.350428	2.325858	48.862749	88.467865	-7.003550	7.272759	17.702239	-6.149020	138.742937	0.682683	4.167805	-6.217739	-19.116223
5.254237	0.497165	-2.640976	79.707700	0.189685	0.965036	0.499585	7.147692	1.111762	-8.377023	10.784739	0.188229	24.415203	3.916191	0.000000	3.670326	-2.538601	-3.377164	4.326024	0.075503	25.187348	0.138661	0.000000	-0.019934	0.262688	2.654807	-0.037020	0.349376	2.820733	-0.032750	0.638701	2.820733	-0.022783	0.638701	2.322956	-0.018511	0.535674	2.157031	-0.011391	0.406904	1.991105	-0.142390	2.971584	14.765242	0.000000	0.000000	21.556932	-1.439285	3.904797	-7.102311	-15.773483	-1.648494	51.707148	88.049710	-6.517261	7.563086	18.245505	-6.260756	133.261261	0.700286	3.185286	-1.508187	-20.824224
